HIERARCHY
ROOT mixamorig:Hips
{
	OFFSET -0.000008 104.274872 1.554316
	CHANNELS 6 Xposition Yposition Zposition Xrotation Yrotation Zrotation
	JOINT mixamorig:Spine
	{
		OFFSET -0.000005 10.181587 0.131521
		CHANNELS 6 Xposition Yposition Zposition Xrotation Yrotation Zrotation
		JOINT mixamorig:Spine1
		{
			OFFSET -0.000000 9.893967 -1.470711
			CHANNELS 3 Xrotation Yrotation Zrotation
			JOINT mixamorig:Spine2
			{
				OFFSET -0.000000 9.220772 -1.370643
				CHANNELS 3 Xrotation Yrotation Zrotation
				JOINT mixamorig:Neck
				{
					OFFSET 0.000001 16.740387 -2.049035
					CHANNELS 6 Xposition Yposition Zposition Xrotation Yrotation Zrotation
					JOINT mixamorig:Head
					{
						OFFSET 0.000000 9.617889 1.685008
						CHANNELS 6 Xposition Yposition Zposition Xrotation Yrotation Zrotation
						JOINT mixamorig:HeadTop_End
						{
							OFFSET 0.000002 22.037369 7.501095
							CHANNELS 6 Xposition Yposition Zposition Xrotation Yrotation Zrotation
							End Site
							{
								OFFSET 0.000002 23.106552 -2.828258
							}
						}
					}
				}
				JOINT mixamorig:RightShoulder
				{
					OFFSET -4.569969 11.014908 -2.160884
					CHANNELS 6 Xposition Yposition Zposition Xrotation Yrotation Zrotation
					JOINT mixamorig:RightArm
					{
						OFFSET -10.592846 -0.524811 -2.232097
						CHANNELS 3 Xrotation Yrotation Zrotation
						JOINT mixamorig:RightForeArm
						{
							OFFSET -27.841518 0.000000 -0.000004
							CHANNELS 3 Xrotation Yrotation Zrotation
							JOINT mixamorig:RightHand
							{
								OFFSET -28.328838 0.000000 0.000019
								CHANNELS 3 Xrotation Yrotation Zrotation
								JOINT mixamorig:RightHandThumb1
								{
									OFFSET -2.464806 -1.573990 2.681852
									CHANNELS 6 Xposition Yposition Zposition Xrotation Yrotation Zrotation
									JOINT mixamorig:RightHandThumb2
									{
										OFFSET -3.215187 -1.872772 1.924281
										CHANNELS 3 Xrotation Yrotation Zrotation
										JOINT mixamorig:RightHandThumb3
										{
											OFFSET -2.654839 -1.527985 1.512611
											CHANNELS 3 Xrotation Yrotation Zrotation
											JOINT mixamorig:RightHandThumb4
											{
												OFFSET -2.018822 -1.152008 1.108052
												CHANNELS 3 Xrotation Yrotation Zrotation
												End Site
												{
													OFFSET -1.888100 -1.145340 1.324313
												}
											}
										}
									}
								}
								JOINT mixamorig:RightHandIndex1
								{
									OFFSET -9.108284 -0.517868 2.259834
									CHANNELS 6 Xposition Yposition Zposition Xrotation Yrotation Zrotation
									JOINT mixamorig:RightHandIndex2
									{
										OFFSET -3.699997 0.000015 0.001215
										CHANNELS 3 Xrotation Yrotation Zrotation
										JOINT mixamorig:RightHandIndex3
										{
											OFFSET -2.850006 0.000000 -0.000521
											CHANNELS 3 Xrotation Yrotation Zrotation
											JOINT mixamorig:RightHandIndex4
											{
												OFFSET -2.772186 0.000000 -0.000020
												CHANNELS 3 Xrotation Yrotation Zrotation
												End Site
												{
													OFFSET -2.772186 0.000000 -0.000502
												}
											}
										}
									}
								}
								JOINT mixamorig:RightHandMiddle1
								{
									OFFSET -9.532501 -0.000046 -0.000025
									CHANNELS 6 Xposition Yposition Zposition Xrotation Yrotation Zrotation
									JOINT mixamorig:RightHandMiddle2
									{
										OFFSET -3.699997 0.000015 0.003713
										CHANNELS 3 Xrotation Yrotation Zrotation
										JOINT mixamorig:RightHandMiddle3
										{
											OFFSET -2.949997 0.000000 -0.002054
											CHANNELS 3 Xrotation Yrotation Zrotation
											JOINT mixamorig:RightHandMiddle4
											{
												OFFSET -2.946632 0.000015 -0.000155
												CHANNELS 3 Xrotation Yrotation Zrotation
												End Site
												{
													OFFSET -2.946625 0.000000 -0.001135
												}
											}
										}
									}
								}
								JOINT mixamorig:RightHandRing1
								{
									OFFSET -9.103592 -0.043076 -1.865134
									CHANNELS 6 Xposition Yposition Zposition Xrotation Yrotation Zrotation
									JOINT mixamorig:RightHandRing2
									{
										OFFSET -3.379272 0.000000 -0.001054
										CHANNELS 3 Xrotation Yrotation Zrotation
										JOINT mixamorig:RightHandRing3
										{
											OFFSET -2.889687 0.000000 0.000379
											CHANNELS 3 Xrotation Yrotation Zrotation
											JOINT mixamorig:RightHandRing4
											{
												OFFSET -2.638817 0.000000 0.000942
												CHANNELS 3 Xrotation Yrotation Zrotation
												End Site
												{
													OFFSET -2.638802 0.000000 0.005160
												}
											}
										}
									}
								}
								JOINT mixamorig:RightHandPinky1
								{
									OFFSET -8.076675 -0.486710 -3.806279
									CHANNELS 6 Xposition Yposition Zposition Xrotation Yrotation Zrotation
									JOINT mixamorig:RightHandPinky2
									{
										OFFSET -3.599998 -0.000031 -0.003747
										CHANNELS 3 Xrotation Yrotation Zrotation
										JOINT mixamorig:RightHandPinky3
										{
											OFFSET -2.099991 -0.000015 -0.005740
											CHANNELS 3 Xrotation Yrotation Zrotation
											JOINT mixamorig:RightHandPinky4
											{
												OFFSET -2.115776 -0.000015 -0.003680
												CHANNELS 3 Xrotation Yrotation Zrotation
												End Site
												{
													OFFSET -2.115784 -0.000015 -0.003507
												}
											}
										}
									}
								}
							}
						}
					}
				}
				JOINT mixamorig:LeftShoulder
				{
					OFFSET 4.570447 11.014709 -2.160855
					CHANNELS 6 Xposition Yposition Zposition Xrotation Yrotation Zrotation
					JOINT mixamorig:LeftArm
					{
						OFFSET 10.592369 -0.524597 -2.232120
						CHANNELS 3 Xrotation Yrotation Zrotation
						JOINT mixamorig:LeftForeArm
						{
							OFFSET 27.841522 -0.000031 0.000023
							CHANNELS 3 Xrotation Yrotation Zrotation
							JOINT mixamorig:LeftHand
							{
								OFFSET 28.328835 -0.000031 0.000018
								CHANNELS 3 Xrotation Yrotation Zrotation
								JOINT mixamorig:LeftHandThumb1
								{
									OFFSET 2.466141 -1.576187 2.681734
									CHANNELS 6 Xposition Yposition Zposition Xrotation Yrotation Zrotation
									JOINT mixamorig:LeftHandThumb2
									{
										OFFSET 3.217804 -1.872055 1.916487
										CHANNELS 3 Xrotation Yrotation Zrotation
										JOINT mixamorig:LeftHandThumb3
										{
											OFFSET 2.656013 -1.528809 1.514505
											CHANNELS 3 Xrotation Yrotation Zrotation
											JOINT mixamorig:LeftHandThumb4
											{
												OFFSET 2.020889 -1.154068 1.115134
												CHANNELS 3 Xrotation Yrotation Zrotation
												End Site
												{
													OFFSET 1.908852 -1.150833 1.300489
												}
											}
										}
									}
								}
								JOINT mixamorig:LeftHandIndex1
								{
									OFFSET 9.109306 -0.518036 2.259871
									CHANNELS 6 Xposition Yposition Zposition Xrotation Yrotation Zrotation
									JOINT mixamorig:LeftHandIndex2
									{
										OFFSET 3.699997 -0.000015 -0.000323
										CHANNELS 3 Xrotation Yrotation Zrotation
										JOINT mixamorig:LeftHandIndex3
										{
											OFFSET 2.850006 -0.000015 0.000350
											CHANNELS 3 Xrotation Yrotation Zrotation
											JOINT mixamorig:LeftHandIndex4
											{
												OFFSET 2.774864 0.000000 -0.000027
												CHANNELS 3 Xrotation Yrotation Zrotation
												End Site
												{
													OFFSET 2.774872 -0.000015 -0.000099
												}
											}
										}
									}
								}
								JOINT mixamorig:LeftHandMiddle1
								{
									OFFSET 9.533401 0.000031 0.000044
									CHANNELS 6 Xposition Yposition Zposition Xrotation Yrotation Zrotation
									JOINT mixamorig:LeftHandMiddle2
									{
										OFFSET 3.699997 -0.000015 -0.000231
										CHANNELS 3 Xrotation Yrotation Zrotation
										JOINT mixamorig:LeftHandMiddle3
										{
											OFFSET 2.950005 0.000000 -0.000060
											CHANNELS 3 Xrotation Yrotation Zrotation
											JOINT mixamorig:LeftHandMiddle4
											{
												OFFSET 2.952858 0.000000 0.000063
												CHANNELS 3 Xrotation Yrotation Zrotation
												End Site
												{
													OFFSET 2.952866 0.000000 0.000228
												}
											}
										}
									}
								}
								JOINT mixamorig:LeftHandRing1
								{
									OFFSET 9.104530 -0.043030 -1.865074
									CHANNELS 6 Xposition Yposition Zposition Xrotation Yrotation Zrotation
									JOINT mixamorig:LeftHandRing2
									{
										OFFSET 3.150002 -0.000015 0.000042
										CHANNELS 3 Xrotation Yrotation Zrotation
										JOINT mixamorig:LeftHandRing3
										{
											OFFSET 2.949997 0.000000 0.000037
											CHANNELS 3 Xrotation Yrotation Zrotation
											JOINT mixamorig:LeftHandRing4
											{
												OFFSET 2.644318 -0.000015 0.000059
												CHANNELS 3 Xrotation Yrotation Zrotation
												End Site
												{
													OFFSET 2.644318 0.000000 0.000121
												}
											}
										}
									}
								}
								JOINT mixamorig:LeftHandPinky1
								{
									OFFSET 8.077782 -0.486877 -3.806256
									CHANNELS 6 Xposition Yposition Zposition Xrotation Yrotation Zrotation
									JOINT mixamorig:LeftHandPinky2
									{
										OFFSET 3.599968 0.000031 0.014726
										CHANNELS 3 Xrotation Yrotation Zrotation
										JOINT mixamorig:LeftHandPinky3
										{
											OFFSET 2.099991 0.000015 0.007705
											CHANNELS 3 Xrotation Yrotation Zrotation
											JOINT mixamorig:LeftHandPinky4
											{
												OFFSET 2.125511 0.000015 0.007514
												CHANNELS 3 Xrotation Yrotation Zrotation
												End Site
												{
													OFFSET 2.125526 0.000015 0.006258
												}
											}
										}
									}
								}
							}
						}
					}
				}
			}
		}
	}
	JOINT mixamorig:RightUpLeg
	{
		OFFSET -8.207787 -6.751671 -1.599560
		CHANNELS 6 Xposition Yposition Zposition Xrotation Yrotation Zrotation
		JOINT mixamorig:RightLeg
		{
			OFFSET -0.000001 -44.370113 0.345939
			CHANNELS 3 Xrotation Yrotation Zrotation
			JOINT mixamorig:RightFoot
			{
				OFFSET 0.000001 -44.423676 -3.043536
				CHANNELS 3 Xrotation Yrotation Zrotation
				JOINT mixamorig:RightToeBase
				{
					OFFSET -0.000003 -8.728670 10.710561
					CHANNELS 3 Xrotation Yrotation Zrotation
					JOINT mixamorig:RightToe_End
					{
						OFFSET -0.000003 -0.000677 9.278120
						CHANNELS 3 Xrotation Yrotation Zrotation
						End Site
						{
							OFFSET -0.000003 -0.000677 9.278120
						}
					}
				}
			}
		}
	}
	JOINT mixamorig:LeftUpLeg
	{
		OFFSET 8.207791 -6.751701 -1.599555
		CHANNELS 6 Xposition Yposition Zposition Xrotation Yrotation Zrotation
		JOINT mixamorig:LeftLeg
		{
			OFFSET -0.000002 -44.370033 0.346958
			CHANNELS 3 Xrotation Yrotation Zrotation
			JOINT mixamorig:LeftFoot
			{
				OFFSET 0.000000 -44.423653 -3.044392
				CHANNELS 3 Xrotation Yrotation Zrotation
				JOINT mixamorig:LeftToeBase
				{
					OFFSET -0.000003 -8.728668 10.710560
					CHANNELS 3 Xrotation Yrotation Zrotation
					JOINT mixamorig:LeftToe_End
					{
						OFFSET -0.000003 -0.000677 9.278137
						CHANNELS 3 Xrotation Yrotation Zrotation
						End Site
						{
							OFFSET -0.000003 -0.000677 9.278137
						}
					}
				}
			}
		}
	}
}
MOTION
Frames: 4
Frame Time: 0.033333
0.478525 101.631050 1.555279 -0.893302 1.577708 -5.358951 -0.000005 10.181591 0.131520 1.298033 -1.197517 3.016609 0.728744 0.264201 5.944685 0.710790 0.781496 5.851996 0.000004 16.740421 -2.049039 1.045308 -0.304694 -2.163986 -0.000002 9.617865 1.685012 1.584932 0.544175 -8.140494 0.000002 22.037369 7.501096 0.000000 -0.000000 -0.000000 -4.569965 11.014944 -2.160888 4.508129 3.324384 5.471562 -1.219714 0.655881 67.345440 -0.000014 17.736787 -0.000002 -11.193500 -9.123343 10.139217 -2.464790 -1.573987 2.681859 18.663185 -0.305896 -11.090847 0.917027 -31.778948 3.259251 1.654304 -7.712103 1.229273 0.000004 -0.000013 0.000001 -9.108271 -0.517870 2.259838 0.342148 -4.690014 7.844574 0.383370 -2.795069 20.565928 -0.193220 -0.226542 13.843889 0.000000 -0.000000 -0.000004 -9.532490 -0.000045 -0.000023 0.928471 -8.824665 15.834229 0.897063 -3.900525 33.397979 0.215663 -1.725942 15.898169 -0.000000 -0.000000 0.000009 -9.103596 -0.043085 -1.865128 2.547594 -11.657215 26.907460 1.715634 -3.910620 40.216325 -0.151689 0.023239 17.815357 0.000000 -0.000000 -0.000003 -8.076673 -0.486715 -3.806279 5.538848 -15.981739 36.929788 1.266657 -4.027988 45.639047 -0.765268 -0.311907 22.120508 0.000000 0.000002 -0.000005 4.570447 11.014723 -2.160859 3.582361 -13.764043 -5.044471 4.032831 3.514317 -83.678225 -0.000016 -14.506743 0.000010 -27.592521 3.698812 -9.416229 2.466138 -1.576200 2.681731 18.639672 0.201068 11.067466 0.957395 31.893029 -3.237411 1.818118 8.673923 -0.462070 -0.000000 -0.000001 0.000001 9.109317 -0.518050 2.259868 0.338881 4.666296 -7.844116 0.389499 2.835132 -20.566371 0.034519 0.809246 -10.169817 0.000002 0.000003 -0.000000 9.533428 0.000005 0.000040 0.911565 8.765796 -15.831579 0.918393 3.993730 -33.400421 0.170822 1.491263 -12.264427 -0.000001 -0.000000 0.000003 9.104542 -0.043036 -1.865077 2.556117 11.673658 -26.909159 1.711105 3.886615 -40.215481 0.545087 1.835032 -19.344148 -0.000000 0.000003 0.000001 8.077815 -0.486888 -3.806263 5.722735 16.216370 -36.981953 1.528857 3.990386 -45.650174 0.557554 2.832844 -20.526325 0.000000 0.000004 -0.000002 -8.207785 -6.751667 -1.599560 -1.602718 -4.966560 10.553960 12.443633 -5.083598 3.268285 -9.844257 1.009922 -7.756674 -0.548661 0.000000 0.000003 0.000000 0.000000 -0.000000 8.207789 -6.751691 -1.599554 -19.550766 10.796483 15.932617 22.035640 9.531402 2.338584 -1.471902 3.333073 -8.784887 -0.441967 0.000002 -0.000002 0.000000 0.000000 -0.000000 
0.791720 101.684296 1.351384 -1.180766 1.441218 -5.229443 -0.000005 10.181593 0.131520 1.453939 -1.332582 2.944019 0.794517 0.235289 5.931271 0.776545 0.751727 5.839182 0.000001 16.740372 -2.049033 0.889981 -0.340858 -2.138191 -0.000003 9.617894 1.685010 1.133667 0.404112 -8.224242 0.000002 22.037369 7.501092 0.000000 0.000000 -0.000000 -4.569969 11.014898 -2.160882 4.394124 4.082681 7.029143 -0.234351 3.590100 65.261208 -0.000012 17.586323 0.000002 -10.941246 -7.427878 11.282231 -2.464804 -1.573987 2.681861 18.663191 -0.305893 -11.090862 0.917041 -31.778968 3.259252 1.654292 -7.712101 1.229289 0.000001 -0.000003 0.000004 -9.108283 -0.517869 2.259837 0.342154 -4.690006 7.844541 0.383361 -2.795067 20.565925 -0.193213 -0.226546 13.843904 -0.000000 0.000000 -0.000001 -9.532491 -0.000043 -0.000021 0.928479 -8.824656 15.834204 0.897049 -3.900522 33.397982 0.215666 -1.725951 15.898175 -0.000000 0.000000 0.000010 -9.103598 -0.043086 -1.865128 2.547583 -11.657205 26.907438 1.715638 -3.910625 40.216308 -0.151679 0.023244 17.815365 -0.000001 0.000001 -0.000002 -8.076684 -0.486715 -3.806280 5.538845 -15.981738 36.929774 1.266665 -4.027991 45.639068 -0.765268 -0.311905 22.120505 0.000001 0.000000 -0.000002 4.570451 11.014699 -2.160854 3.386911 -14.541427 -6.059128 5.039737 0.192633 -80.959735 -0.000017 -17.010825 -0.000013 -26.372235 0.413041 -9.810141 2.466130 -1.576208 2.681735 18.639675 0.201074 11.067473 0.957396 31.893025 -3.237405 1.818125 8.673913 -0.462087 0.000001 -0.000002 0.000006 9.109318 -0.518040 2.259868 0.349940 4.742974 -8.609172 0.416441 2.905217 -21.310702 0.044406 0.876074 -10.835807 0.000001 0.000000 0.000001 9.533429 0.000022 0.000041 0.963446 8.858107 -16.601412 0.961200 4.060279 -34.193833 0.187223 1.555750 -12.930727 0.000000 0.000001 0.000003 9.104546 -0.043038 -1.865078 2.622894 11.681059 -27.687106 1.769816 3.942711 -41.030135 0.576716 1.901920 -20.090114 -0.000000 0.000000 -0.000002 8.077813 -0.486879 -3.806259 5.773503 16.275057 -37.755138 1.586637 4.051584 -46.490390 0.591256 2.900206 -21.273171 0.000000 -0.000001 0.000001 -8.207787 -6.751659 -1.599559 -1.602192 -4.892541 10.194199 12.708529 -4.873887 3.283590 -9.826835 0.858373 -7.592251 -0.592864 -0.000003 -0.000002 0.000000 0.000000 -0.000000 8.207790 -6.751698 -1.599553 -19.164252 10.805563 15.500547 21.864679 9.851451 2.465346 -1.398538 3.327060 -8.645139 -0.460961 -0.000006 -0.000002 0.000000 -0.000001 -0.000000 
1.160211 101.729599 1.106472 -1.513454 1.405534 -5.103167 -0.000005 10.181598 0.131522 1.712748 -1.371751 2.891938 0.902439 0.230204 5.918854 0.884561 0.745470 5.827210 0.000003 16.740423 -2.049036 0.653533 -0.407668 -2.110207 0.000003 9.617886 1.685012 0.510713 0.131734 -8.258001 0.000003 22.037338 7.501096 -0.000001 -0.000000 -0.000000 -4.569964 11.014935 -2.160886 4.302022 4.983978 8.172979 2.191070 9.164570 61.835506 0.000007 18.303059 -0.000045 -12.081676 -7.417460 15.925698 -2.464802 -1.573974 2.681859 18.663188 -0.305898 -11.090843 0.917021 -31.778958 3.259222 1.654281 -7.712105 1.229277 0.000001 -0.000004 0.000002 -9.108283 -0.517863 2.259839 0.342137 -4.690007 7.844563 0.383368 -2.795078 20.565875 -0.193208 -0.226539 13.843904 -0.000000 -0.000002 -0.000011 -9.532506 -0.000045 -0.000021 0.928472 -8.824660 15.834221 0.897053 -3.900523 33.397979 0.215665 -1.725938 15.898170 0.000000 0.000000 0.000005 -9.103590 -0.043070 -1.865125 2.547592 -11.657208 26.907453 1.715627 -3.910618 40.216318 -0.151694 0.023246 17.815357 -0.000000 -0.000000 -0.000004 -8.076691 -0.486705 -3.806273 5.538836 -15.981746 36.929771 1.266665 -4.027979 45.639061 -0.765271 -0.311918 22.120517 0.000001 -0.000000 0.000003 4.570449 11.014729 -2.160856 3.187924 -15.568361 -6.781320 5.632305 -3.901259 -78.280054 -0.000032 -20.863438 -0.000010 -26.510247 -2.635405 -11.372695 2.466126 -1.576201 2.681734 18.639668 0.201070 11.067481 0.957386 31.893046 -3.237404 1.818126 8.673918 -0.462060 0.000000 0.000002 -0.000004 9.109320 -0.518057 2.259871 0.385780 4.954008 -10.723517 0.495705 3.097164 -23.369716 0.075896 1.061012 -12.685516 -0.000000 0.000000 0.000009 9.533428 0.000022 0.000045 1.113799 9.105386 -18.730284 1.084076 4.240786 -36.384179 0.236756 1.733870 -14.781445 0.000000 0.000000 -0.000002 9.104545 -0.043041 -1.865072 2.805611 11.699190 -29.836001 1.935873 4.093031 -43.277380 0.668679 2.084647 -22.153389 -0.000000 0.000002 0.000001 8.077816 -0.486886 -3.806256 5.918066 16.433777 -39.893475 1.750378 4.215726 -48.805568 0.689015 3.084131 -23.338944 -0.000000 0.000001 0.000002 -8.207786 -6.751662 -1.599559 -1.637841 -4.847601 9.809937 13.095673 -4.718072 3.288096 -9.853297 0.681377 -7.381612 -0.642025 0.000003 0.000000 0.000000 -0.000001 -0.000000 8.207792 -6.751688 -1.599555 -18.786242 10.766185 14.984238 21.739541 10.036267 2.661589 -1.332409 3.423530 -8.486087 -0.448574 0.000011 0.000001 -0.000000 0.000000 0.000000 
1.593890 101.769363 0.811566 -1.895465 1.490955 -4.990464 -0.000005 10.181590 0.131521 2.075007 -1.313574 2.867262 1.048779 0.249239 5.911329 1.031059 0.763102 5.820027 0.000007 16.740393 -2.049037 0.352883 -0.501952 -2.078691 0.000001 9.617927 1.685006 -0.271363 -0.261227 -8.221280 0.000002 22.037338 7.501098 0.000001 -0.000000 -0.000000 -4.569967 11.014926 -2.160884 4.186658 6.000967 9.095226 5.431858 15.108802 57.182494 0.000005 19.321490 0.000014 -12.811236 -9.699132 22.963506 -2.464813 -1.574000 2.681858 18.663191 -0.305895 -11.090853 0.917016 -31.778965 3.259221 1.654305 -7.712096 1.229285 0.000005 -0.000004 0.000002 -9.108295 -0.517865 2.259836 0.342132 -4.690011 7.844555 0.383373 -2.795071 20.565904 -0.193212 -0.226538 13.843904 -0.000000 -0.000001 -0.000008 -9.532490 -0.000042 -0.000024 0.928467 -8.824662 15.834211 0.897056 -3.900530 33.397982 0.215668 -1.725941 15.898179 0.000001 -0.000003 0.000002 -9.103608 -0.043083 -1.865128 2.547578 -11.657211 26.907462 1.715641 -3.910630 40.216301 -0.151683 0.023236 17.815369 -0.000001 0.000001 -0.000000 -8.076694 -0.486713 -3.806278 5.538838 -15.981753 36.929771 1.266672 -4.027990 45.639068 -0.765275 -0.311922 22.120517 -0.000001 -0.000006 -0.000004 4.570451 11.014706 -2.160856 2.950353 -16.883833 -7.437685 5.746372 -7.625200 -75.153289 -0.000037 -25.527584 -0.000001 -27.504465 -3.531859 -14.084785 2.466130 -1.576200 2.681735 18.639687 0.201077 11.067478 0.957381 31.893042 -3.237408 1.818125 8.673916 -0.462076 -0.000003 0.000000 0.000001 9.109327 -0.518043 2.259868 0.454671 5.269666 -13.916539 0.628510 3.381563 -26.482870 0.135139 1.339829 -15.496682 0.000001 -0.000000 0.000001 9.533416 0.000021 0.000037 1.359629 9.457884 -21.948610 1.282148 4.503654 -39.687098 0.322976 2.001229 -17.594388 0.000001 -0.000000 -0.000004 9.104546 -0.043050 -1.865082 3.074895 11.717129 -33.078049 2.196762 4.306816 -46.662541 0.820017 2.354197 -25.272361 0.000002 0.000000 0.000002 8.077824 -0.486877 -3.806267 6.148025 16.663326 -43.126105 2.008824 4.449738 -52.287960 0.849200 3.355105 -26.461930 -0.000000 -0.000001 0.000004 -8.207788 -6.751667 -1.599560 -1.693458 -4.810199 9.412010 13.566834 -4.657831 3.281570 -9.899611 0.481223 -7.115910 -0.710159 -0.000001 -0.000000 -0.000000 0.000001 -0.000000 8.207790 -6.751695 -1.599556 -18.428644 10.707304 14.407437 21.659303 10.054141 2.904704 -1.272221 3.598191 -8.280366 -0.424140 -0.000003 -0.000001 -0.000000 -0.000001 -0.000000 
